<svg version="1.1" xmlns:xlink="http://www.w3.org/1999/xlink" xmlns="http://www.w3.org/2000/svg" width="1285" height="140"><defs><style type="text/css">.c{fill:none;stroke:#222222;}.j{fill:#000000;font-family:Verdana,Sans-serif;font-size:12px;}.l{fill:#90d9ff;stroke:#222222;}.r{fill:#d3f0ff;stroke:#222222;}</style></defs><path class="c" d="M0 22h45m144 0h73m-232 0q5 0 5 5v20q0 5 5 5h5m91 0h10m57 0h10m29 0h5q5 0 5-5v-20q0-5 5-5m5 0h30m164 0h10m67 0h10m29 0h20m-315 0q5 0 5 5v8q0 5 5 5h290q5 0 5-5v-8q0-5 5-5m5 0h30m164 0h10m51 0h10m29 0h20m-299 0q5 0 5 5v8q0 5 5 5h274q5 0 5-5v-8q0-5 5-5m5 0h30m188 0h10m67 0h10m29 0h20m-339 0q5 0 5 5v8q0 5 5 5h314q5 0 5-5v-8q0-5 5-5m5 0h20m-1265 55q0 5 5 5h5m146 0h10m25 0h30m103 0h20m-138 0q5 0 5 5v8q0 5 5 5h113q5 0 5-5v-8q0-5 5-5m5 0h30m64 0h20m-99 0q5 0 5 5v8q0 5 5 5h74q5 0 5-5v-8q0-5 5-5m5 0h10m25 0h757q5 0 5-5m-1260-55q5 0 5 5v95q0 5 5 5h5m116 0h1124q5 0 5-5v-95q0-5 5-5m5 0h5"/><rect class="l" x="45" y="5" width="144" height="25" rx="7"/><text class="j" x="55" y="22">defaultErrorHandler</text><rect class="l" x="45" y="35" width="91" height="25" rx="7"/><text class="j" x="55" y="52">deadletter(</text><a xlink:href="#String"><rect class="r" x="146" y="35" width="57" height="25"/><text class="j" x="156" y="52">String</text></a><rect class="l" x="213" y="35" width="29" height="25" rx="7"/><text class="j" x="223" y="52"> )</text><rect class="l" x="292" y="5" width="164" height="25" rx="7"/><text class="j" x="302" y="22">.maximumRedeliveries(</text><a xlink:href="#Integer"><rect class="r" x="466" y="5" width="67" height="25"/><text class="j" x="476" y="22">Integer</text></a><rect class="l" x="543" y="5" width="29" height="25" rx="7"/><text class="j" x="553" y="22"> )</text><rect class="l" x="622" y="5" width="164" height="25" rx="7"/><text class="j" x="632" y="22">.maximumRedeliveries(</text><a xlink:href="#Long"><rect class="r" x="796" y="5" width="51" height="25"/><text class="j" x="806" y="22">Long</text></a><rect class="l" x="857" y="5" width="29" height="25" rx="7"/><text class="j" x="867" y="22"> )</text><rect class="l" x="936" y="5" width="188" height="25" rx="7"/><text class="j" x="946" y="22">.maximumRedeliveryDelay(</text><a xlink:href="#Integer"><rect class="r" x="1134" y="5" width="67" height="25"/><text class="j" x="1144" y="22">Integer</text></a><rect class="l" x="1211" y="5" width="29" height="25" rx="7"/><text class="j" x="1221" y="22"> )</text><rect class="l" x="25" y="65" width="146" height="25" rx="7"/><text class="j" x="35" y="82">loggingErrorHandler</text><rect class="l" x="181" y="65" width="25" height="25" rx="7"/><text class="j" x="191" y="82">(</text><a xlink:href="#LoggingLevel"><rect class="r" x="236" y="65" width="103" height="25"/><text class="j" x="246" y="82">LoggingLevel</text></a><a xlink:href="#Logger"><rect class="r" x="389" y="65" width="64" height="25"/><text class="j" x="399" y="82">Logger</text></a><rect class="l" x="483" y="65" width="25" height="25" rx="7"/><text class="j" x="493" y="82">)</text><rect class="l" x="25" y="110" width="116" height="25" rx="7"/><text class="j" x="35" y="127">noErrorHandler</text></svg>