<svg version="1.1" xmlns:xlink="http://www.w3.org/1999/xlink" xmlns="http://www.w3.org/2000/svg" width="579" height="65"><defs><style type="text/css">.c{fill:none;stroke:#222222;}.j{fill:#000000;font-family:Verdana,Sans-serif;font-size:12px;}.l{fill:#90d9ff;stroke:#222222;}.r{fill:#d3f0ff;stroke:#222222;}</style></defs><path class="c" d="M0 37h5m135 0h10m28 0h30m63 0h20m-98 0q5 0 5 5v8q0 5 5 5h73q5 0 5-5v-8q0-5 5-5m5 0h30m-5 0q-5 0-5-5v-17q0-5 5-5h205q5 0 5 5v17q0 5-5 5m-152 0h30m24 0h10m63 0h20m-132 0q5 0 5 5v8q0 5 5 5h107q5 0 5-5v-8q0-5 5-5m5 0h30m28 0h5"/><rect class="l" x="5" y="20" width="135" height="25" rx="7"/><text class="j" x="15" y="37">class RouteBuilder</text><rect class="l" x="150" y="20" width="28" height="25" rx="7"/><text class="j" x="160" y="37">{</text><a xlink:href="#handle"><rect class="r" x="208" y="20" width="63" height="25"/><text class="j" x="218" y="37">handle</text></a><rect class="l" x="321" y="20" width="48" height="25" rx="7"/><text class="j" x="331" y="37">from</text><rect class="l" x="399" y="20" width="24" height="25" rx="7"/><text class="j" x="409" y="37">.</text><a xlink:href="#handle"><rect class="r" x="433" y="20" width="63" height="25"/><text class="j" x="443" y="37">handle</text></a><rect class="l" x="546" y="20" width="28" height="25" rx="7"/><text class="j" x="556" y="37">}</text></svg>