<svg version="1.1" xmlns:xlink="http://www.w3.org/1999/xlink" xmlns="http://www.w3.org/2000/svg" width="669" height="95"><defs><style type="text/css">.c{fill:none;stroke:#222222;}.j{fill:#000000;font-family:Verdana,Sans-serif;font-size:12px;}.l{fill:#90d9ff;stroke:#222222;}</style></defs><path class="c" d="M0 22h5m63 0h10m25 0h30m32 0h10m110 0h344m-511 0q5 0 5 5v35q0 5 5 5h5m54 0h10m38 0h10m28 0h50m-5 0q-5 0-5-5v-17q0-5 5-5h218q5 0 5 5v17q0 5-5 5m-159 0h10m24 0h10m110 0h40m-283 0q5 0 5 5v8q0 5 5 5h258q5 0 5-5v-8q0-5 5-5m5 0h10m28 0h5q5 0 5-5v-35q0-5 5-5m5 0h10m25 0h5"/><rect class="l" x="5" y="5" width="63" height="25" rx="7"/><text class="j" x="15" y="22">handle</text><rect class="l" x="78" y="5" width="25" height="25" rx="7"/><text class="j" x="88" y="22">(</text><rect class="l" x="133" y="5" width="32" height="25" rx="7"/><text class="j" x="143" y="22">_.</text><rect class="l" x="175" y="5" width="110" height="25" rx="7"/><text class="j" x="185" y="22">error-handling</text><rect class="l" x="133" y="50" width="54" height="25" rx="7"/><text class="j" x="143" y="67">route</text><rect class="l" x="197" y="50" width="38" height="25" rx="7"/><text class="j" x="207" y="67">=&gt;</text><rect class="l" x="245" y="50" width="28" height="25" rx="7"/><text class="j" x="255" y="67">{</text><rect class="l" x="323" y="50" width="54" height="25" rx="7"/><text class="j" x="333" y="67">route</text><rect class="l" x="387" y="50" width="24" height="25" rx="7"/><text class="j" x="397" y="67">.</text><rect class="l" x="421" y="50" width="110" height="25" rx="7"/><text class="j" x="431" y="67">error-handling</text><rect class="l" x="581" y="50" width="28" height="25" rx="7"/><text class="j" x="591" y="67">}</text><rect class="l" x="639" y="5" width="25" height="25" rx="7"/><text class="j" x="649" y="22">)</text></svg>