<svg version="1.1" xmlns:xlink="http://www.w3.org/1999/xlink" xmlns="http://www.w3.org/2000/svg" width="737" height="125"><defs><style type="text/css">.c{fill:none;stroke:#222222;}.j{fill:#000000;font-family:Verdana,Sans-serif;font-size:12px;}.l{fill:#90d9ff;stroke:#222222;}.r{fill:#d3f0ff;stroke:#222222;}</style></defs><path class="c" d="M0 22h5m36 0h10m25 0h10m81 0h10m25 0h30m25 0h10m79 0h10m25 0h20m-184 0q5 0 5 5v8q0 5 5 5h159q5 0 5-5v-8q0-5 5-5m5 0h30m82 0h10m25 0h30m71 0h28m-114 0q5 0 5 5v20q0 5 5 5h5m79 0h5q5 0 5-5v-20q0-5 5-5m5 0h10m25 0h20m-316 0q5 0 5 5v50q0 5 5 5h5m71 0h10m25 0h30m71 0h28m-114 0q5 0 5 5v20q0 5 5 5h5m79 0h5q5 0 5-5v-20q0-5 5-5m5 0h10m25 0h16q5 0 5-5v-50q0-5 5-5m5 0h5"/><rect class="l" x="5" y="5" width="36" height="25" rx="7"/><text class="j" x="15" y="22">on</text><rect class="l" x="51" y="5" width="25" height="25" rx="7"/><text class="j" x="61" y="22">[</text><a xlink:href="#Exception"><rect class="r" x="86" y="5" width="81" height="25"/><text class="j" x="96" y="22">Exception</text></a><rect class="l" x="177" y="5" width="25" height="25" rx="7"/><text class="j" x="187" y="22">]</text><rect class="l" x="232" y="5" width="25" height="25" rx="7"/><text class="j" x="242" y="22">(</text><a xlink:href="#Predicate"><rect class="r" x="267" y="5" width="79" height="25"/><text class="j" x="277" y="22">Predicate</text></a><rect class="l" x="356" y="5" width="25" height="25" rx="7"/><text class="j" x="366" y="22">)</text><rect class="l" x="431" y="5" width="82" height="25" rx="7"/><text class="j" x="441" y="22">continued</text><rect class="l" x="523" y="5" width="25" height="25" rx="7"/><text class="j" x="533" y="22">(</text><a xlink:href="#Boolean"><rect class="r" x="578" y="5" width="71" height="25"/><text class="j" x="588" y="22">Boolean</text></a><a xlink:href="#Predicate"><rect class="r" x="578" y="35" width="79" height="25"/><text class="j" x="588" y="52">Predicate</text></a><rect class="l" x="687" y="5" width="25" height="25" rx="7"/><text class="j" x="697" y="22">)</text><rect class="l" x="431" y="65" width="71" height="25" rx="7"/><text class="j" x="441" y="82">handled</text><rect class="l" x="512" y="65" width="25" height="25" rx="7"/><text class="j" x="522" y="82">(</text><a xlink:href="#Boolean"><rect class="r" x="567" y="65" width="71" height="25"/><text class="j" x="577" y="82">Boolean</text></a><a xlink:href="#Predicate"><rect class="r" x="567" y="95" width="79" height="25"/><text class="j" x="577" y="112">Predicate</text></a><rect class="l" x="676" y="65" width="25" height="25" rx="7"/><text class="j" x="686" y="82">)</text></svg>