<?xml version="1.0" encoding="UTF-8" standalone="no"?>
<!-- Created with Inkscape (http://www.inkscape.org/) -->

<svg
   xmlns:dc="http://purl.org/dc/elements/1.1/"
   xmlns:cc="http://creativecommons.org/ns#"
   xmlns:rdf="http://www.w3.org/1999/02/22-rdf-syntax-ns#"
   xmlns:svg="http://www.w3.org/2000/svg"
   xmlns="http://www.w3.org/2000/svg"
   xmlns:sodipodi="http://sodipodi.sourceforge.net/DTD/sodipodi-0.dtd"
   xmlns:inkscape="http://www.inkscape.org/namespaces/inkscape"
   width="744.09448819"
   height="1052.3622047"
   id="svg2"
   version="1.1"
   inkscape:version="0.48.4 r9939"
   inkscape:export-filename="/home/babel/modules.png"
   inkscape:export-xdpi="90"
   inkscape:export-ydpi="90"
   sodipodi:docname="modules.svg">
  <defs
     id="defs4" />
  <sodipodi:namedview
     id="base"
     pagecolor="#ffffff"
     bordercolor="#666666"
     borderopacity="1.0"
     inkscape:pageopacity="0.0"
     inkscape:pageshadow="2"
     inkscape:zoom="1.979899"
     inkscape:cx="291.4682"
     inkscape:cy="569.73139"
     inkscape:document-units="px"
     inkscape:current-layer="layer1"
     showgrid="false"
     inkscape:window-width="1918"
     inkscape:window-height="1059"
     inkscape:window-x="0"
     inkscape:window-y="19"
     inkscape:window-maximized="0"
     showguides="true"
     inkscape:guide-bbox="true" />
  <metadata
     id="metadata7">
    <rdf:RDF>
      <cc:Work
         rdf:about="">
        <dc:format>image/svg+xml</dc:format>
        <dc:type
           rdf:resource="http://purl.org/dc/dcmitype/StillImage" />
        <dc:title></dc:title>
      </cc:Work>
    </rdf:RDF>
  </metadata>
  <g
     inkscape:label="Layer 1"
     inkscape:groupmode="layer"
     id="layer1">
    <g
       id="g3147"
       transform="translate(-170.35714,-46.428576)" />
    <path
       sodipodi:nodetypes="cscssccsscsssscssscsscc"
       inkscape:connector-curvature="0"
       style="opacity:0.62934361000000005;fill:#ffffff;fill-opacity:1;stroke:#00801b;stroke-width:2;stroke-miterlimit:4;stroke-opacity:1;stroke-dasharray:2, 2;stroke-dashoffset:0"
       d="m 78.116398,447.5833 c -3.54274,0 -6.38817,2.86288 -6.38817,6.40563 l 0,55.43394 c -0.0864,0.45784 -0.13963,0.93007 -0.13963,1.41378 l 0,47.94617 c 0,0.48455 0.0529,0.95518 0.13963,1.41378 l 0,5.49801 0,40.77257 c 0,3.54275 2.84543,6.38817 6.38817,6.38817 l 40.772572,0 203.39349,0 c 3.54274,0 6.38817,-1.41685 6.38817,-6.38817 l 0,-40.77257 c 0,-3.54274 -2.84543,-6.40562 -6.38817,-6.40562 l -141.0303,0 c 0.0112,-0.16865 0.0174,-0.33459 0.0174,-0.50617 l 0,-47.94617 c 0,-4.16735 -3.35534,-7.52268 -7.52268,-7.52268 l -48.4698,0 0,-49.32504 c 0,-3.54275 -2.84542,-6.40563 -6.38816,-6.40563 l -40.772582,0 z"
       id="rect4511-5" />
    <text
       xml:space="preserve"
       style="font-size:22.34113693px;font-style:normal;font-variant:normal;font-weight:normal;font-stretch:normal;line-height:125%;letter-spacing:0px;word-spacing:0px;fill:#000000;fill-opacity:1;stroke:none;font-family:Palatino Linotype;-inkscape-font-specification:Palatino Linotype"
       x="111.20235"
       y="593.68903"
       id="text4616-4"
       sodipodi:linespacing="125%"><tspan
         sodipodi:role="line"
         id="tspan4618-8"
         x="111.20235"
         y="593.68903">Camel</tspan></text>
    <path
       style="opacity:0.62900001999999999;fill:#ffffff;fill-opacity:1;stroke:#0080ff;stroke-width:2;stroke-miterlimit:4;stroke-opacity:1;stroke-dasharray:2,2;stroke-dashoffset:0"
       d="M 277 475.65625 C 276.17139 475.65625 275.5 477.56116 275.5 479.90625 L 275.5 525.0625 L 190.03125 525.0625 C 187.81456 525.0625 186.03125 526.13584 186.03125 527.4375 L 186.03125 552.75 C 186.03125 554.05164 187.81456 555.09375 190.03125 555.09375 L 324.65625 555.09375 C 326.87295 555.09375 328.65625 554.05164 328.65625 552.75 L 328.65625 527.4375 C 328.76199 526.85636 328.84375 526.23233 328.84375 525.53125 L 328.84375 479.90625 C 328.84375 477.56116 328.17237 475.65625 327.34375 475.65625 L 277 475.65625 z "
       id="rect4003" />
    <g
       transform="matrix(-0.25881905,-0.96592583,0.96592583,-0.25881905,-8.58511,959.92318)"
       id="g4005">
      <text
         xml:space="preserve"
         style="font-size:29.89041328px;font-style:normal;font-weight:normal;line-height:125%;letter-spacing:0px;word-spacing:0px;fill:#000000;fill-opacity:1;stroke:none;font-family:rockwell;-inkscape-font-specification:rockwell"
         x="337.67438"
         y="-330.45612"
         id="text4007"
         sodipodi:linespacing="125%"
         transform="matrix(0,1,-1,0,0,0)"><tspan
           sodipodi:role="line"
           id="tspan4009"
           x="337.67438"
           y="-330.45612"
           style="font-family:Palatino Linotype;-inkscape-font-specification:Palatino Linotype">Parsing</tspan></text>
    </g>
    <path
       inkscape:connector-curvature="0"
       d="m 134.86006,447.85193 188.64827,0 c 3.10584,0 5.6062,0.8413 5.6062,1.88632 l 0,20.33022 c 0,1.04501 -2.50036,1.88631 -5.6062,1.88631 l -188.64827,0 c -3.10582,0 -5.6062,-0.8413 -5.6062,-1.88631 l 0,-20.33022 c 0,-1.04502 2.50038,-1.88632 5.6062,-1.88632 z"
       style="opacity:0.62900002;fill:#ffffff;fill-opacity:1;stroke:#0080ff;stroke-width:2;stroke-miterlimit:4;stroke-opacity:1;stroke-dasharray:2, 2;stroke-dashoffset:0"
       id="path4043" />
    <g
       transform="matrix(0,-1,1,0,-158.2735,796.37257)"
       id="g4021">
      <text
         xml:space="preserve"
         style="font-size:29.89041328px;font-style:normal;font-weight:normal;line-height:125%;letter-spacing:0px;word-spacing:0px;fill:#000000;fill-opacity:1;stroke:none;font-family:rockwell;-inkscape-font-specification:rockwell"
         x="359.2384"
         y="-326.20898"
         id="text4023"
         sodipodi:linespacing="125%"
         transform="matrix(0,1,-1,0,0,0)"><tspan
           sodipodi:role="line"
           id="tspan4025"
           x="359.2384"
           y="-326.20898"
           style="font-family:Palatino Linotype;-inkscape-font-specification:Palatino Linotype">DSL</tspan></text>
    </g>
    <path
       style="opacity:0.62900002;fill:#ffffff;fill-opacity:1;stroke:#0080ff;stroke-width:1.97378421;stroke-miterlimit:4;stroke-opacity:1;stroke-dasharray:1.97378423, 1.97378423;stroke-dashoffset:0"
       d="m 131.98762,475.87458 c -2.24043,0 -4.03198,0.87346 -4.03198,1.94756 l 0,20.87539 c 0,1.07409 1.79155,1.94756 4.03198,1.94756 l 54.19735,0 0,19.17128 c 0,1.0899 1.068,1.97799 2.40668,1.97799 l 81.29602,0 c 1.33866,0 2.43794,-0.88809 2.43794,-1.97799 l 0,-21.21013 c 0,-0.27248 -0.0656,-0.52524 -0.18754,-0.76076 l 0,-20.02334 c 0,-1.0741 -1.82279,-1.94756 -4.06323,-1.94756 l -136.08722,0 z"
       id="path4035"
       inkscape:connector-curvature="0" />
    <g
       id="g3137"
       transform="matrix(0,-1,1,0,-187.76341,826.19857)">
      <text
         transform="matrix(-0.25881905,0.96592583,-0.96592583,-0.25881905,0,0)"
         sodipodi:linespacing="125%"
         id="text3075"
         y="-411.33609"
         x="244.65675"
         style="font-size:24.52389526px;font-style:normal;font-weight:normal;line-height:125%;letter-spacing:0px;word-spacing:0px;fill:#000000;fill-opacity:1;stroke:none;font-family:rockwell;-inkscape-font-specification:rockwell"
         xml:space="preserve"><tspan
           style="font-family:Palatino Linotype;-inkscape-font-specification:Palatino Linotype"
           y="-411.33609"
           x="244.65675"
           id="tspan3077"
           sodipodi:role="line">Definition</tspan></text>
    </g>
  </g>
</svg>
